<svg xmlns="http://www.w3.org/2000/svg" viewBox="0 0 32 32">
  <defs>
    <linearGradient id="gradient" x1="0%" y1="0%" x2="100%" y2="100%">
      <stop offset="0%" style="stop-color:#8b5cf6;stop-opacity:1" />
      <stop offset="50%" style="stop-color:#ec4899;stop-opacity:1" />
      <stop offset="100%" style="stop-color:#ef4444;stop-opacity:1" />
    </linearGradient>
  </defs>
  
  <!-- Background gradient circle -->
  <circle cx="16" cy="16" r="15" fill="url(#gradient)" stroke="white" stroke-width="1"/>
  
  <!-- Inner white circle -->
  <circle cx="16" cy="16" r="11" fill="white"/>
  
  <!-- Brain icon - Lucide Brain -->
  <g transform="translate(8, 8) scale(0.67)">
    <path d="M12 5a3 3 0 1 0-5.997.125 4 4 0 0 0-2.526 5.77 4 4 0 0 0 .556 6.588A4 4 0 1 0 12 18Z" fill="#8b5cf6"/>
    <path d="M12 5a3 3 0 1 1 5.997.125 4 4 0 0 1 2.526 5.77 4 4 0 0 1-.556 6.588A4 4 0 1 1 12 18Z" fill="#8b5cf6"/>
    <path d="M15 13a4.5 4.5 0 0 1-3-4 4.5 4.5 0 0 1-3 4" fill="#8b5cf6"/>
    <path d="M17.599 6.5a3 3 0 0 0 .399-1.375" fill="#8b5cf6"/>
    <path d="M6.003 5.125A3 3 0 0 0 6.401 6.5" fill="#8b5cf6"/>
    <path d="M3.477 10.896a4 4 0 0 1 .585-.396" fill="#8b5cf6"/>
    <path d="M19.938 10.5a4 4 0 0 1 .585.396" fill="#8b5cf6"/>
    <path d="M6 18a4 4 0 0 1-1.967-.516" fill="#8b5cf6"/>
    <path d="M19.967 17.484A4 4 0 0 1 18 18" fill="#8b5cf6"/>
  </g>
  
  <!-- Animated dot -->
  <circle cx="26" cy="6" r="2" fill="#06b6d4">
    <animate attributeName="opacity" values="1;0.3;1" dur="2s" repeatCount="indefinite"/>
  </circle>
</svg> 